<svg width="466" height="132" viewBox="0 0 466 132" fill="none" xmlns="http://www.w3.org/2000/svg">
<path d="M462.004 50.8949C462.22 54.243 460.905 57.655 458.113 61.1002C455.318 64.5482 451.066 67.999 445.48 71.4012C434.309 78.2049 417.9 84.7581 397.44 90.6993C356.53 102.579 299.534 111.982 236.156 116.083C172.777 120.184 115.045 118.205 72.9447 111.696C51.8903 108.441 34.7728 104.058 22.8187 98.7503C16.8411 96.0963 12.1798 93.2223 8.96383 90.1633C5.75046 87.1067 4.00677 83.8926 3.79012 80.5445C3.57347 77.1964 4.88842 73.7844 7.68107 70.3392C10.476 66.8912 14.728 63.4404 20.3137 60.0382C31.4842 53.2345 47.894 46.6813 68.3533 40.7401C109.264 28.86 166.259 19.4571 229.638 15.356C293.017 11.255 350.748 13.2343 392.849 19.743C413.903 22.998 431.021 27.3817 442.975 32.6891C448.953 35.3431 453.614 38.2171 456.83 41.2761C460.043 44.3327 461.787 47.5468 462.004 50.8949Z" stroke="black"/>
</svg>
