<svg width="916" height="133" viewBox="0 0 916 133" fill="none" xmlns="http://www.w3.org/2000/svg">
<path d="M913.295 51.2158C913.349 52.8121 912.681 54.4592 911.233 56.1622C909.783 57.868 907.575 59.5994 904.618 61.3436C898.705 64.8317 889.897 68.3154 878.474 71.7431C855.634 78.5961 822.452 85.1933 781.35 91.1765C699.152 103.142 585.349 112.642 459.427 116.839C333.506 121.035 219.323 119.133 136.511 112.667C95.1013 109.434 61.5534 105.06 38.3086 99.743C26.6821 97.0835 17.6618 94.194 11.5299 91.1073C8.46356 89.5638 6.14477 87.9833 4.58434 86.3778C3.0265 84.775 2.25061 83.176 2.19741 81.5798C2.14421 79.9835 2.81192 78.3363 4.25959 76.6334C5.70967 74.9276 7.91808 73.1962 10.8749 71.4519C16.7877 67.9639 25.5956 64.4802 37.0191 61.0525C59.8584 54.1994 93.0407 47.6023 134.143 41.6191C216.341 29.6537 330.144 20.1534 456.065 15.9568C581.987 11.7602 696.17 13.6625 778.982 20.1287C820.392 23.3621 853.939 27.7353 877.184 33.0526C888.811 35.7121 897.831 38.6016 903.963 41.6882C907.029 43.2318 909.348 44.8123 910.909 46.4177C912.466 48.0205 913.242 49.6195 913.295 51.2158Z" stroke="black"/>
</svg>
